#Comment line ignore any data following # character 
#Hierarchical Translation and Rotation (.htr) file 
[Header]	
#Header keywords are followed by a single value 
FileType HTR		#Single word string
DataType HTRS		#Translation followed by rotation and scale data
FileVersion 1		#integer
NumSegments 64		#integer
NumFrames 3		#integer
DataFrameRate 30		#integer, data frame rate in this file
EulerRotationOrder ZYX
CalibrationUnits mm
RotationUnits Degrees
GlobalAxisofGravity Y
BoneLengthAxis Y
ScaleFactor 1.00
[SegmentNames&Hierarchy]
#CHILD	PARENT
Pinger_Root GLOBAL
Pelvis Pinger_Root
L_Hip Pelvis
R_Hip Pelvis
Rear_Leg01 Pelvis
Spine1 Pelvis
L_Leg01 L_Hip
L_Leg02 L_Leg01
L_Leg03 L_Leg02
L_Foot L_Leg03
L_Toe1_01 L_Foot
L_Toe2_01 L_Foot
L_Toe3_01 L_Foot
planeAlignerLeft L_Foot
L_Toe1_02 L_Toe1_01
L_Toe1_03 L_Toe1_02
L_Toe2_02 L_Toe2_01
L_Toe2_03 L_Toe2_02
L_Toe3_02 L_Toe3_01
L_Toe3_03 L_Toe3_02
planeLockWeightLeft planeAlignerLeft
R_Leg01 R_Hip
R_Leg02 R_Leg01
R_Leg03 R_Leg02
R_Foot R_Leg03
planeAlignerRight R_Foot
R_Toe1_01 R_Foot
R_Toe2_01 R_Foot
R_Toe3_01 R_Foot
planeLockWeightRight planeAlignerRight
R_Toe1_02 R_Toe1_01
R_Toe1_03 R_Toe1_02
R_Toe2_02 R_Toe2_01
R_Toe2_03 R_Toe2_02
R_Toe3_02 R_Toe3_01
R_Toe3_03 R_Toe3_02
Rear_Leg02 Rear_Leg01
Rear_Leg03 Rear_Leg02
Rear_Leg04 Rear_Leg03
Rear_Foot Rear_Leg04
planeAlignerCenter Rear_Foot
Rear_Toe1_01 Rear_Foot
Rear_Toe2_01 Rear_Foot
Rear_Toe3_01 Rear_Foot
planeLockWeightCenter planeAlignerCenter
Rear_Toe1_02 Rear_Toe1_01
Rear_Toe1_03 Rear_Toe1_02
Rear_Toe2_02 Rear_Toe2_01
Rear_Toe2_03 Rear_Toe2_02
Rear_Toe3_02 Rear_Toe3_01
Rear_Toe3_03 Rear_Toe3_02
Back_Bone Spine1
Head Spine1
Motor_Bone Back_Bone
Ping_Mechanism Back_Bone
BN_LookIK Head
bottomMouth Head
L_Mouth01 Head
L_mouthFront Head
mouthGun Head
R_Mouth01 Head
R_mouthFront Head
TopMouth Head
weapon_bone Head
[BasePosition]
#SegmentName Tx, Ty, Tz, Rx, Ry, Rz, BoneLength
Pinger_Root 0.000000 0.000000 0.000000 -90.000000 0.000000 0.000000 10.000000 
Pelvis 0.000000 0.000000 0.000000 0.000000 0.000000 0.000000 10.000000 
L_Hip 0.000000 0.000000 0.000000 0.000000 0.000000 0.000000 10.000000 
R_Hip 0.000000 0.000000 0.000000 0.000000 0.000000 0.000000 10.000000 
Rear_Leg01 0.000000 0.000000 0.000000 0.000000 0.000000 0.000000 10.000000 
Spine1 0.000000 0.000000 0.000000 0.000000 0.000000 0.000000 10.000000 
L_Leg01 0.000000 0.000000 0.000000 0.000000 0.000000 0.000000 10.000000 
L_Leg02 0.000000 0.000000 0.000000 0.000000 0.000000 0.000000 10.000000 
L_Leg03 0.000000 0.000000 0.000000 0.000000 0.000000 0.000000 10.000000 
L_Foot 0.000000 0.000000 0.000000 0.000000 0.000000 0.000000 10.000000 
L_Toe1_01 0.000000 0.000000 0.000000 0.000000 0.000000 0.000000 10.000000 
L_Toe2_01 0.000000 0.000000 0.000000 0.000000 0.000000 0.000000 10.000000 
L_Toe3_01 0.000000 0.000000 0.000000 0.000000 0.000000 0.000000 10.000000 
planeAlignerLeft 0.000000 0.000000 0.000000 0.000000 0.000000 0.000000 10.000000 
L_Toe1_02 0.000000 0.000000 0.000000 0.000000 0.000000 0.000000 10.000000 
L_Toe1_03 0.000000 0.000000 0.000000 0.000000 0.000000 0.000000 10.000000 
L_Toe2_02 0.000000 0.000000 0.000000 0.000000 0.000000 0.000000 10.000000 
L_Toe2_03 0.000000 0.000000 0.000000 0.000000 0.000000 0.000000 10.000000 
L_Toe3_02 0.000000 0.000000 0.000000 0.000000 0.000000 0.000000 10.000000 
L_Toe3_03 0.000000 0.000000 0.000000 0.000000 0.000000 0.000000 10.000000 
planeLockWeightLeft 0.000000 0.000000 0.000000 0.000000 0.000000 0.000000 10.000000 
R_Leg01 0.000000 0.000000 0.000000 0.000000 0.000000 0.000000 10.000000 
R_Leg02 0.000000 0.000000 0.000000 0.000000 0.000000 0.000000 10.000000 
R_Leg03 0.000000 0.000000 0.000000 0.000000 0.000000 0.000000 10.000000 
R_Foot 0.000000 0.000000 0.000000 0.000000 0.000000 0.000000 10.000000 
planeAlignerRight 0.000000 0.000000 0.000000 0.000000 0.000000 0.000000 10.000000 
R_Toe1_01 0.000000 0.000000 0.000000 0.000000 0.000000 0.000000 10.000000 
R_Toe2_01 0.000000 0.000000 0.000000 0.000000 0.000000 0.000000 10.000000 
R_Toe3_01 0.000000 0.000000 0.000000 0.000000 0.000000 0.000000 10.000000 
planeLockWeightRight 0.000000 0.000000 0.000000 0.000000 0.000000 0.000000 10.000000 
R_Toe1_02 0.000000 0.000000 0.000000 0.000000 0.000000 0.000000 10.000000 
R_Toe1_03 0.000000 0.000000 0.000000 0.000000 0.000000 0.000000 10.000000 
R_Toe2_02 0.000000 0.000000 0.000000 0.000000 0.000000 0.000000 10.000000 
R_Toe2_03 0.000000 0.000000 0.000000 0.000000 0.000000 0.000000 10.000000 
R_Toe3_02 0.000000 0.000000 0.000000 0.000000 0.000000 0.000000 10.000000 
R_Toe3_03 0.000000 0.000000 0.000000 0.000000 0.000000 0.000000 10.000000 
Rear_Leg02 0.000000 0.000000 0.000000 0.000000 0.000000 0.000000 10.000000 
Rear_Leg03 0.000000 0.000000 0.000000 0.000000 0.000000 0.000000 10.000000 
Rear_Leg04 0.000000 0.000000 0.000000 0.000000 0.000000 0.000000 10.000000 
Rear_Foot 0.000000 0.000000 0.000000 0.000000 0.000000 0.000000 10.000000 
planeAlignerCenter 0.000000 0.000000 0.000000 0.000000 0.000000 0.000000 10.000000 
Rear_Toe1_01 0.000000 0.000000 0.000000 0.000000 0.000000 0.000000 10.000000 
Rear_Toe2_01 0.000000 0.000000 0.000000 0.000000 0.000000 0.000000 10.000000 
Rear_Toe3_01 0.000000 0.000000 0.000000 0.000000 0.000000 0.000000 10.000000 
planeLockWeightCenter 0.000000 0.000000 0.000000 0.000000 0.000000 0.000000 10.000000 
Rear_Toe1_02 0.000000 0.000000 0.000000 0.000000 0.000000 0.000000 10.000000 
Rear_Toe1_03 0.000000 0.000000 0.000000 0.000000 0.000000 0.000000 10.000000 
Rear_Toe2_02 0.000000 0.000000 0.000000 0.000000 0.000000 0.000000 10.000000 
Rear_Toe2_03 0.000000 0.000000 0.000000 0.000000 0.000000 0.000000 10.000000 
Rear_Toe3_02 0.000000 0.000000 0.000000 0.000000 0.000000 0.000000 10.000000 
Rear_Toe3_03 0.000000 0.000000 0.000000 0.000000 0.000000 0.000000 10.000000 
Back_Bone 0.000000 0.000000 0.000000 0.000000 0.000000 0.000000 10.000000 
Head 0.000000 0.000000 0.000000 0.000000 0.000000 0.000000 10.000000 
Motor_Bone 0.000000 0.000000 0.000000 0.000000 0.000000 0.000000 10.000000 
Ping_Mechanism 0.000000 0.000000 0.000000 0.000000 0.000000 0.000000 10.000000 
BN_LookIK 0.000000 0.000000 0.000000 0.000000 0.000000 0.000000 10.000000 
bottomMouth 0.000000 0.000000 0.000000 0.000000 0.000000 0.000000 10.000000 
L_Mouth01 0.000000 0.000000 0.000000 0.000000 0.000000 0.000000 10.000000 
L_mouthFront 0.000000 0.000000 0.000000 0.000000 0.000000 0.000000 10.000000 
mouthGun 0.000000 0.000000 0.000000 0.000000 0.000000 0.000000 10.000000 
R_Mouth01 0.000000 0.000000 0.000000 0.000000 0.000000 0.000000 10.000000 
R_mouthFront 0.000000 0.000000 0.000000 0.000000 0.000000 0.000000 10.000000 
TopMouth 0.000000 0.000000 0.000000 0.000000 0.000000 0.000000 10.000000 
weapon_bone 0.000000 0.000000 0.000000 0.000000 0.000000 0.000000 10.000000 
#Beginning of Data. Separated by tabs
#Fr	Tx	Ty	Tz	Rx	Ry	Rz	SF
[Pinger_Root]
265 0.000000 0.000000 0.000000 -0.000075 -0.000000 -0.000020 0.000000
266 0.000000 0.000000 0.000000 -0.000075 -0.000000 -0.000020 0.000000
267 0.000000 0.000000 0.000000 -0.000075 -0.000000 -0.000020 0.000000
[Pelvis]
265 79.817856 887.817078 4368.872559 -97.519371 -84.432152 89.892647 4458.882813
266 78.914635 903.875977 4371.600586 -97.519142 -84.431938 89.892403 4464.763184
267 78.119614 917.231873 4378.329590 -97.518906 -84.431763 89.892197 4474.057617
[L_Hip]
265 5.766392 125.831482 872.656799 160.158691 -45.484905 122.312202 881.701050
266 5.766392 125.831482 872.656799 160.158691 -45.484894 122.312202 881.701050
267 5.766392 125.831482 872.656799 160.158691 -45.484898 122.312202 881.701050
[R_Hip]
265 5.765438 125.836372 -872.654907 38.087826 49.812672 125.703735 881.699829
266 5.765438 125.836372 -872.654907 38.087841 49.812687 125.703735 881.699829
267 5.765438 125.836372 -872.654907 38.087845 49.812698 125.703743 881.699829
[Rear_Leg01]
265 -192.298416 -925.602966 -0.001907 169.643127 1.779290 -161.949768 945.367432
266 -192.298416 -925.602966 -0.001907 169.644287 1.786699 -161.949173 945.367432
267 -192.298416 -925.602966 -0.001907 169.646301 1.796690 -161.909027 945.367432
[Spine1]
265 290.604584 5.007505 0.000477 7.263160 -0.619482 17.705236 290.647736
266 290.604584 5.007505 0.000477 7.263160 -0.619482 17.705236 290.647736
267 290.604584 5.007505 0.000477 7.263160 -0.619482 17.705236 290.647736
[L_Leg01]
265 761.932007 -0.002384 -0.069261 21.049120 -16.884283 -4.514553 761.932068
266 761.932007 -0.002384 -0.069261 21.140299 -16.813210 -4.690412 761.932068
267 761.932007 -0.002384 -0.069261 21.231234 -16.741854 -4.866162 761.932068
[L_Leg02]
265 1441.140503 -0.000954 -0.000715 2.996059 -0.191976 -132.655014 1441.140503
266 1441.140503 -0.000954 -0.000715 3.021095 -0.191263 -132.886978 1441.140503
267 1441.140503 -0.000954 -0.000715 3.016451 -0.191133 -132.816895 1441.140503
[L_Leg03]
265 1686.963989 -0.000715 -0.000954 -0.029894 0.014821 118.530609 1686.963989
266 1686.963989 -0.000715 -0.000954 -0.029889 0.014831 118.568016 1686.963989
267 1686.963989 -0.000715 -0.000954 -0.029884 0.014841 118.605400 1686.963989
[L_Foot]
265 3041.570068 -30.715107 11.297464 1.837027 12.919467 55.486931 3041.746094
266 3041.570068 -30.715107 11.297464 1.803348 12.911593 55.752903 3041.746094
267 3041.570068 -30.715107 11.297464 1.769633 12.903872 56.018887 3041.746094
[L_Toe1_01]
265 -188.216690 -224.732346 -21.137953 94.360069 -6.933513 -176.619965 293.899567
266 -188.216690 -224.732346 -21.137953 94.359962 -6.932636 -176.619446 293.899567
267 -188.216690 -224.732346 -21.137953 94.359871 -6.931760 -176.618927 293.899567
[L_Toe2_01]
265 200.746536 -219.926590 148.838394 -89.927048 -26.378334 -52.756264 332.896027
266 200.746536 -219.926590 148.838394 -89.927223 -26.377163 -52.756950 332.896027
267 200.746536 -219.926590 148.838394 -89.927399 -26.375996 -52.757641 332.896027
[L_Toe3_01]
265 188.832520 -219.859131 -191.078659 -100.278442 13.839441 -68.146187 347.140900
266 188.832520 -219.859131 -191.078659 -100.278442 13.839441 -68.146187 347.140900
267 188.832520 -219.859131 -191.078659 -100.278442 13.839441 -68.146187 347.140900
[planeAlignerLeft]
265 0.812531 -811.448792 -0.314951 0.000000 -90.000000 -90.001900 811.449280
266 0.812531 -811.448792 -0.314951 0.000000 -90.000000 -90.001900 811.449280
267 0.812531 -811.448792 -0.314951 0.000000 -90.000000 -90.001900 811.449280
[L_Toe1_02]
265 413.761139 0.000477 0.000000 0.000203 -25.410625 -0.000182 413.761139
266 413.761139 0.000477 0.000000 0.000203 -25.410625 -0.000182 413.761139
267 413.761139 0.000477 0.000000 0.000203 -25.410625 -0.000182 413.761139
[L_Toe1_03]
265 464.317322 0.000358 -0.000089 0.006513 69.238518 0.006513 464.317322
266 464.317322 0.000358 -0.000089 0.006514 69.239822 0.006514 464.317322
267 464.317322 0.000358 -0.000089 0.006514 69.241135 0.006514 464.317322
[L_Toe2_02]
265 342.235809 -0.000477 0.000238 0.001199 -66.563332 0.001199 342.235809
266 342.235809 -0.000477 0.000238 0.001199 -66.563332 0.001199 342.235809
267 342.235809 -0.000477 0.000238 0.001199 -66.563339 0.001199 342.235809
[L_Toe2_03]
265 420.210846 -0.000715 0.000000 -0.001994 72.430641 -0.005532 420.210846
266 420.210846 -0.000715 0.000000 -0.001994 72.430641 -0.005532 420.210846
267 420.210846 -0.000715 0.000000 -0.001994 72.430641 -0.005532 420.210846
[L_Toe3_02]
265 329.270111 0.000954 0.000000 0.001180 -77.617035 0.001180 329.270111
266 329.270111 0.000954 0.000000 0.001180 -77.615387 0.001180 329.270111
267 329.270111 0.000954 0.000000 0.001180 -77.613800 0.001180 329.270111
[L_Toe3_03]
265 439.137451 -0.001907 0.000954 -179.957535 88.510361 -179.954041 439.137451
266 439.137451 -0.001907 0.000954 -179.957535 88.510101 -179.954041 439.137451
267 439.137451 -0.001907 0.000954 -179.957535 88.510361 -179.954041 439.137451
[planeLockWeightLeft]
265 -0.000954 0.000238 -0.000305 -0.011826 -0.004376 0.005620 0.001029
266 -0.000954 0.000238 -0.000305 -0.011826 -0.004376 0.005620 0.001029
267 -0.000954 0.000238 -0.000305 -0.011826 -0.004376 0.005620 0.001029
[R_Leg01]
265 761.455627 -0.001907 -0.000358 124.342422 -10.995068 32.498692 761.455688
266 761.455627 -0.001907 -0.000358 124.289169 -10.738048 32.672626 761.455688
267 761.455627 -0.001907 -0.000358 124.236771 -10.480826 32.846214 761.455688
[R_Leg02]
265 1441.140625 0.000000 -0.000238 -1.492940 -0.267746 -123.129486 1441.140625
266 1441.140625 0.000000 -0.000238 -1.492933 -0.267783 -123.132286 1441.140625
267 1441.140625 0.000000 -0.000238 -1.482540 -0.264501 -122.850899 1441.140625
[R_Leg03]
265 1686.963989 0.000954 0.001431 0.081854 -0.046849 132.512390 1686.963989
266 1686.963989 0.000954 0.001431 0.081390 -0.045660 132.429977 1686.963989
267 1686.963989 0.000954 0.001431 0.080923 -0.044470 132.347519 1686.963989
[R_Foot]
265 3041.560059 -30.531288 -11.204481 13.673922 -24.574234 55.749210 3041.734131
266 3041.560059 -30.531288 -11.204481 13.729890 -24.590326 55.918941 3041.734131
267 3041.560059 -30.531288 -11.204481 13.785811 -24.606567 56.088661 3041.734131
[planeAlignerRight]
265 -0.635147 -812.270569 -0.364304 0.000000 -89.960434 -90.005180 812.270874
266 -0.635147 -812.270569 -0.364304 0.000000 -89.960434 -90.005180 812.270874
267 -0.635147 -812.270569 -0.364304 0.000000 -89.960434 -90.005180 812.270874
[R_Toe1_01]
265 -188.383347 -224.864899 21.052242 91.513130 -8.692595 -175.243896 294.101532
266 -188.383347 -224.864899 21.052242 91.531685 -8.695194 -175.347168 294.101532
267 -188.383347 -224.864899 21.052242 91.493134 -8.692286 -175.103806 294.101532
[R_Toe2_01]
265 200.637817 -220.002121 -148.787384 -102.029793 18.968372 -64.417976 332.857574
266 200.637817 -220.002121 -148.787384 -102.034172 18.963531 -64.432526 332.857574
267 200.637817 -220.002121 -148.787384 -102.038582 18.958672 -64.447113 332.857574
[R_Toe3_01]
265 188.606735 -220.092957 191.126343 -80.572792 -24.509840 -67.823250 347.192566
266 188.606735 -220.092957 191.126343 -80.587646 -24.535910 -67.735344 347.192566
267 188.606735 -220.092957 191.126343 -80.552757 -24.476406 -67.951569 347.192566
[planeLockWeightRight]
265 -0.000477 0.000000 0.000000 -0.011823 -0.004379 -0.000027 0.000477
266 -0.000477 0.000000 0.000000 -0.011823 -0.004379 -0.000027 0.000477
267 -0.000477 0.000000 0.000000 -0.011823 -0.004379 -0.000027 0.000477
[R_Toe1_02]
265 413.762085 0.000477 -0.000119 0.001395 -24.587181 0.001395 413.762085
266 413.762085 0.000477 -0.000119 0.001395 -24.557531 0.001395 413.762085
267 413.762085 0.000477 -0.000119 0.001395 -24.527874 0.001395 413.762085
[R_Toe1_03]
265 464.317810 0.000000 0.001088 0.006909 70.438637 0.006909 464.317810
266 464.317810 0.000000 0.001088 0.006945 70.541618 0.006945 464.317810
267 464.317810 0.000000 0.001088 0.006894 70.396339 0.006894 464.317810
[R_Toe2_02]
265 342.234741 -0.000954 0.000238 0.001195 -68.377159 0.001195 342.234741
266 342.234741 -0.000954 0.000238 0.001195 -68.362259 0.001195 342.234741
267 342.234741 -0.000954 0.000238 0.001195 -68.347313 0.001195 342.234741
[R_Toe2_03]
265 420.210846 0.000715 -0.000268 0.009632 76.002769 0.009632 420.210846
266 420.210846 0.000715 -0.000268 0.009732 76.147232 0.009732 420.210846
267 420.210846 0.000715 -0.000268 0.009594 75.946419 0.009594 420.210846
[R_Toe3_02]
265 329.270355 -0.000477 -0.000954 0.001182 -76.157372 0.001182 329.270355
266 329.270355 -0.000477 -0.000954 0.001182 -76.281288 0.001182 329.270355
267 329.270355 -0.000477 -0.000954 0.001182 -76.147102 0.001182 329.270355
[R_Toe3_03]
265 439.137939 0.000238 0.001431 -0.030712 87.725830 -0.027214 439.137939
266 439.137939 0.000238 0.001431 -0.032376 87.849319 -0.028878 439.137939
267 439.137939 0.000238 0.001431 -0.030030 87.671066 -0.026533 439.137939
[Rear_Leg02]
265 1162.777710 -0.029802 0.005960 0.564226 -2.934014 -122.243927 1162.777710
266 1162.777710 -0.029802 0.005960 0.516450 -2.941625 -121.336716 1162.777710
267 1162.777710 -0.029802 0.005960 0.487313 -2.948032 -120.727722 1162.777710
[Rear_Leg03]
265 607.192505 -0.013351 -0.073195 0.006481 -0.002093 64.010971 607.192505
266 607.192505 -0.013351 -0.073195 0.006487 -0.002075 63.682743 607.192505
267 607.192505 -0.013351 -0.073195 0.006492 -0.002056 63.354465 607.192505
[Rear_Leg04]
265 995.874512 -0.020504 -0.011921 -0.040432 -0.015393 57.586502 995.874573
266 995.874512 -0.020504 -0.011921 -0.040328 -0.015657 56.834591 995.874573
267 995.874512 -0.020504 -0.011921 -0.040280 -0.015781 56.483616 995.874573
[Rear_Foot]
265 3096.176270 -0.067472 -0.041425 -143.611450 85.727585 48.465542 3096.176270
266 3096.176270 -0.067472 -0.041425 -143.595535 85.729691 48.623741 3096.176270
267 3096.176270 -0.067472 -0.041425 -143.579178 85.731522 48.781879 3096.176270
[planeAlignerCenter]
265 0.350077 0.966311 -838.790894 0.000009 0.000003 -179.999985 838.791565
266 0.350077 0.966311 -838.790894 0.000009 0.000003 -179.999985 838.791565
267 0.350077 0.966311 -838.790894 0.000009 0.000003 -179.999985 838.791565
[Rear_Toe1_01]
265 0.653352 83.966492 -371.173737 0.251007 35.053440 90.392159 380.553192
266 0.653352 83.966492 -371.173737 0.255712 34.642807 90.389191 380.553192
267 0.653352 83.966492 -371.173737 0.245686 34.844250 90.389618 380.553192
[Rear_Toe2_01]
265 178.200760 -294.826019 -362.060547 -7.787128 29.141802 -65.899750 499.765686
266 178.200760 -294.826019 -362.060547 -7.821353 28.802494 -65.873177 499.765686
267 178.200760 -294.826019 -362.060547 -7.801698 28.970070 -65.882156 499.765686
[Rear_Toe3_01]
265 -153.359680 -308.780914 -362.060852 3.571339 28.576990 -112.923859 499.952881
266 -153.359680 -308.780914 -362.060852 3.588022 28.255054 -112.946503 499.952881
267 -153.359680 -308.780914 -362.060852 3.578561 28.410233 -112.936699 499.952881
[planeLockWeightCenter]
265 -0.000062 0.000238 0.000000 -0.011814 -0.004373 -0.000015 0.000246
266 -0.000062 0.000238 0.000000 -0.011814 -0.004373 -0.000015 0.000246
267 -0.000062 0.000238 0.000000 -0.011814 -0.004373 -0.000015 0.000246
[Rear_Toe1_02]
265 379.707825 0.194073 0.000477 -0.000348 -33.118755 0.006994 379.707855
266 379.707825 0.194073 0.000477 -0.000346 -33.085281 0.006993 379.707855
267 379.707825 0.194073 0.000477 -0.000343 -33.051739 0.006991 379.707855
[Rear_Toe1_03]
265 500.129700 0.165701 0.000119 -0.004202 62.310997 -0.000601 500.129761
266 500.129700 0.165701 0.000119 -0.004245 62.826199 -0.000648 500.129761
267 500.129700 0.165701 0.000119 -0.004224 62.577301 -0.000625 500.129761
[Rear_Toe2_02]
265 340.494507 0.000238 -0.000954 0.001185 -74.425346 0.001185 340.494507
266 340.494507 0.000238 -0.000954 0.001184 -74.642921 0.001184 340.494507
267 340.494507 0.000238 -0.000954 0.001185 -74.441193 0.001185 340.494507
[Rear_Toe2_03]
265 433.103577 0.000000 0.000238 0.010544 77.219017 0.010544 433.103546
266 433.103577 0.000000 0.000238 0.010866 77.599388 0.010866 433.103546
267 433.103577 0.000000 0.000238 0.010708 77.415619 0.010708 433.103546
[Rear_Toe3_02]
265 340.494141 -0.000358 -0.000477 0.001188 -72.107994 0.001188 340.494171
266 340.494141 -0.000358 -0.000477 0.001188 -72.340668 0.001188 340.494171
267 340.494141 -0.000358 -0.000477 0.001188 -72.230492 0.001188 340.494171
[Rear_Toe3_03]
265 433.103577 0.001431 -0.000238 0.008116 73.371193 0.008116 433.103546
266 433.103577 0.001431 -0.000238 0.008306 73.754143 0.008306 433.103546
267 433.103577 0.001431 -0.000238 0.008213 73.568863 0.008213 433.103546
[Back_Bone]
265 1312.175781 -701.934692 0.000954 1.474453 -0.065170 -82.862419 1488.125488
266 1312.175781 -701.934692 0.000954 1.474470 -0.063464 -82.862404 1488.125488
267 1312.175781 -701.934692 0.000954 1.474486 -0.061758 -82.862389 1488.125488
[Head]
265 1406.159424 809.709290 0.001431 0.023125 -1.475925 6.532102 1622.625488
266 1406.159424 809.709290 0.001431 0.014684 -1.475797 6.931878 1622.625488
267 1406.159424 809.709290 0.001431 0.006245 -1.475611 7.331673 1622.625488
[Motor_Bone]
265 1158.364380 -417.834747 0.000477 -0.095385 0.076104 -105.915703 1231.419434
266 1158.364380 -417.834747 0.000477 -0.095385 0.076104 -105.915703 1231.419434
267 1158.364380 -417.834747 0.000477 -0.095385 0.076104 -105.915703 1231.419434
[Ping_Mechanism]
265 1240.463989 -445.918640 0.740902 0.000103 -0.000053 82.120995 1318.178711
266 1240.464233 -445.918671 0.741713 0.000103 -0.000053 82.120995 1318.178833
267 1240.464355 -445.918701 0.742525 0.000103 -0.000053 82.120995 1318.178955
[BN_LookIK]
265 193.241119 1380.371704 -0.002861 0.000000 89.965736 -31.038179 1393.832153
266 193.241119 1380.371704 -0.002861 0.000000 89.965736 -31.038179 1393.832153
267 193.241119 1380.371704 -0.002861 0.000000 89.965736 -31.038179 1393.832153
[bottomMouth]
265 -435.092926 615.759399 -0.000954 -0.000022 0.000016 73.527184 753.966492
266 -435.092926 615.759399 -0.000954 -0.000022 0.000016 73.527184 753.966492
267 -435.092926 615.759399 -0.000954 -0.000022 0.000016 73.527184 753.966492
[L_Mouth01]
265 554.440979 7.658243 838.222046 150.204178 23.759130 109.605339 1005.027161
266 554.440979 7.658243 838.222046 150.204178 23.759130 109.605339 1005.027161
267 554.440979 7.658243 838.222046 150.204178 23.759130 109.605339 1005.027161
[L_mouthFront]
265 551.629089 934.514771 339.150421 0.000081 2.804060 79.119301 1136.941284
266 551.629089 934.514771 339.150421 0.000081 2.804060 79.119301 1136.941284
267 551.629089 934.514771 339.150421 0.000081 2.804060 79.119301 1136.941284
[mouthGun]
265 55.332661 1627.420898 0.000000 0.000023 0.000009 -11.038128 1628.361328
266 55.332661 1627.420898 0.000000 0.000023 0.000009 -11.038128 1628.361328
267 55.332661 1627.420898 0.000000 0.000023 0.000009 -11.038128 1628.361328
[R_Mouth01]
265 554.442383 7.659197 -838.223938 29.795891 -23.759109 109.605331 1005.029541
266 554.442383 7.659197 -838.223938 29.795891 -23.759109 109.605331 1005.029541
267 554.442383 7.659197 -838.223938 29.795891 -23.759109 109.605331 1005.029541
[R_mouthFront]
265 551.629089 934.514282 -339.151367 0.000029 -2.803930 79.119133 1136.941162
266 551.629089 934.514282 -339.151367 0.000029 -2.803930 79.119133 1136.941162
267 551.629089 934.514282 -339.151367 0.000029 -2.803930 79.119133 1136.941162
[TopMouth]
265 461.269867 -56.106091 -0.008583 -0.000059 -0.000268 92.025169 464.669525
266 461.269867 -56.106091 -0.008583 -0.000059 -0.000268 92.025169 464.669525
267 461.269867 -56.106091 -0.008583 -0.000059 -0.000268 92.025169 464.669525
[weapon_bone]
265 -987.239868 1448.372803 0.001431 0.000000 89.965736 -31.038221 1752.833740
266 -987.239868 1448.372803 0.001431 0.000000 89.965736 -31.038221 1752.833740
267 -987.239868 1448.372803 0.001431 0.000000 89.965736 -31.038221 1752.833740
